<svg width="2508" height="2508" version="1.1" xmlns="http://www.w3.org/2000/svg" desc="Created with imagetracer.js version 1.2.6" ><path fill="rgb(251,251,251)" stroke="rgb(251,251,251)" stroke-width="1" opacity="0.9686274509803922" d="M 1303.5 916 L 1319.5 917 L 1331 926.5 L 1331 929 Q 1333.7 927.9 1333 930.5 L 1335 934.5 L 1336 944.5 L 1333 954 L 1330 955.5 L 1325.5 962 L 1322 962 Q 1323.8 966.5 1318.5 965 Q 1314.2 968.7 1304.5 967 L 1297 965 L 1297 962 L 1293 962 Q 1294.7 957.9 1290.5 959 Q 1281.8 952.7 1284 935.5 Q 1287.3 924.4 1296.5 919 L 1303.5 916 Z " /><path fill="rgb(251,251,251)" stroke="rgb(251,251,251)" stroke-width="1" opacity="0.9686274509803922" d="M 1302.5 1034 L 1314 1035 Q 1312.5 1038.7 1315.5 1038 L 1322 1045.5 L 1322 1412.5 L 1316.5 1422 L 1305.5 1427 L 1291.5 1427 L 1283.5 1423 L 1267 1407.5 L 1267 1405 L 1264 1405 L 1264 1402 L 1261 1402 Q 1262.5 1398.3 1259.5 1399 L 1254.5 1396 L 1229 1371.5 Q 1230.1 1368.2 1227.5 1369 L 1217 1362 L 1215.5 1359 Q 1213.3 1359.8 1214 1357.5 L 1213 1354 L 1210 1354 Q 1211.5 1350.2 1208.5 1351 L 1203.5 1348 L 1179.5 1324 L 1178 1324 Q 1179.5 1320.3 1176.5 1321 L 1163 1309.5 L 1160.5 1306 L 1157 1303.5 Q 1158.1 1300.2 1155.5 1301 L 1146 1293.5 Q 1147.1 1290.2 1144.5 1291 L 1112 1261.5 Q 1113.1 1258.2 1110.5 1259 L 1104.5 1255 L 1071 1223.5 Q 1072.3 1219.8 1068.5 1221 L 1063 1216.5 Q 1064.3 1212.8 1060.5 1214 L 1057 1216.5 Q 1057.8 1218.8 1055.5 1218 L 1054 1222 L 1051 1223.5 L 1035.5 1243 L 1033 1244.5 L 1012.5 1270 L 1010 1271.5 L 988.5 1298 L 986 1299.5 Q 982.8 1307.3 976.5 1312 L 974 1313.5 L 970.5 1319 L 968 1320.5 L 964.5 1326 L 962 1327.5 L 958.5 1333 L 956 1334.5 L 953.5 1340 L 950 1341.5 L 940.5 1354 L 938 1355.5 L 931.5 1365 L 929 1366.5 Q 917.2 1384.2 901.5 1398 Q 897.1 1401.1 888.5 1400 Q 878.5 1398 874 1390.5 L 863 1376.5 L 863 1374 L 859 1372.5 Q 856.2 1370.5 857 1366 Q 853.2 1366.8 852 1363.5 L 824 1328.5 L 824 1325 L 821 1325 Q 823.1 1319.8 818.5 1321 Q 814 1319.6 815 1314 L 812 1314 Q 814.1 1308.8 809.5 1310 L 803 1302.5 L 803 1299 L 800 1299 Q 802.1 1293.8 797.5 1295 Q 790.4 1289.1 788 1280 Q 784.2 1280.8 783 1277.5 L 775 1265.5 L 747 1231.5 L 747 1228 Q 742.3 1228.8 741 1224.5 L 733 1214.5 L 732 1210 L 729 1210 L 729 1206 L 726 1206 Q 728.1 1200.8 723.5 1202 L 717 1194.5 L 717 1191 L 713 1189.5 L 705 1178.5 L 705 1176 Q 700.9 1177.7 702 1173.5 L 696 1167.5 L 696 1164 Q 691.3 1164.8 690 1160.5 L 684 1152.5 L 684 1149 Q 679.3 1149.8 678 1145.5 Q 666.8 1127.2 652 1112.5 L 652 1109 L 648 1107.5 L 628 1081.5 L 628 1078 Q 623.3 1078.8 622 1074.5 L 613 1063.5 Q 609.8 1060.2 611 1052.5 Q 613.4 1043.4 620.5 1039 Q 624.5 1036 632.5 1037 Q 640.6 1038.4 644 1044.5 Q 647.1 1051.9 653 1056.5 L 654 1060 Q 657 1058.8 656 1062.5 L 659 1064 L 660.5 1068 L 667 1073.5 L 675 1086 L 679 1088.5 L 681.5 1094 Q 684.1 1093.2 683 1096.5 L 688 1100.5 L 719 1139.5 L 722 1146 L 727 1149.5 L 734.5 1161 Q 737.1 1160.2 736 1163.5 L 739 1165 L 740.5 1169 Q 743.8 1167.9 743 1170.5 Q 748 1174 749 1180 Q 752 1178.8 751 1182.5 L 756 1186.5 L 761 1195 Q 764 1193.8 763 1197.5 L 770 1203.5 L 773 1210 Q 776 1208.8 775 1212.5 L 780 1216.5 Q 785.1 1226 793 1232.5 L 793 1235 Q 795.7 1233.9 795 1236.5 L 797.5 1240 Q 800.1 1239.2 799 1242.5 L 806 1248.5 L 809 1255 L 815 1259.5 L 817 1265 Q 820 1263.8 819 1267.5 L 827 1274.5 L 841.5 1295 Q 844.1 1294.2 843 1297.5 L 850 1303.5 L 861 1317.5 L 862 1321 L 866 1323.5 L 868 1329 L 871 1330.5 Q 870.3 1332.8 872.5 1332 L 879 1340.5 L 880 1344 L 885 1347.5 L 886 1351 L 890 1353.5 L 892.5 1357 L 907.5 1338 Q 911.3 1339.3 910 1335.5 L 925.5 1317 Q 928.8 1318.1 928 1315.5 L 937.5 1303 Q 940.8 1304.1 940 1301.5 L 943.5 1296 L 946 1296 L 946 1292 Q 949.7 1293.5 949 1290.5 L 964.5 1271 Q 967.8 1272.1 967 1269.5 L 972.5 1262 Q 975.8 1263.1 975 1260.5 L 978.5 1255 Q 982.3 1256.3 981 1252.5 L 984 1247 L 988 1244.5 L 996.5 1234 Q 999.8 1235.1 999 1232.5 L 1005.5 1223 L 1008 1223 L 1008 1219 L 1011 1219 L 1011 1216 Q 1014.7 1217.5 1014 1214.5 L 1026.5 1198 Q 1030.7 1199.3 1029 1194.5 L 1047.5 1175 Q 1051.7 1176.1 1050 1172 L 1053.5 1172 L 1054.5 1171 L 1064.5 1171 Q 1074.1 1173.9 1079 1181.5 Q 1078.3 1183.8 1080.5 1183 L 1093 1194.5 L 1094.5 1197 L 1099 1200.5 Q 1098.3 1202.8 1100.5 1202 L 1126 1226.5 Q 1125.3 1228.8 1127.5 1228 L 1136 1234 Q 1134.5 1237.7 1137.5 1237 L 1139 1240 L 1143.5 1242 L 1158 1255.5 Q 1156.9 1258.8 1159.5 1258 L 1179.5 1277 L 1186 1281 Q 1184.5 1284.8 1187.5 1284 L 1189 1287 L 1192 1288.5 Q 1191.3 1290.8 1193.5 1290 L 1224 1318.5 Q 1223.3 1320.8 1225.5 1320 L 1234 1327.5 Q 1233.3 1329.8 1235.5 1329 L 1283 1372.5 L 1284.5 1376 L 1286.5 1377 L 1287 1048.5 Q 1289.3 1041.8 1294.5 1038 Q 1297.8 1039.1 1297 1036.5 L 1296.5 1035 Q 1301.3 1036.3 1302.5 1034 Z " /><path fill="rgb(251,251,251)" stroke="rgb(251,251,251)" stroke-width="1" opacity="0.9686274509803922" d="M 1432.5 1049 L 1872.5 1049 L 1885 1055 L 1886 1060 Q 1891.3 1058.2 1889 1065.5 L 1890 1070.5 L 1889 1071.5 L 1889 1078 L 1886 1078 L 1886 1081 Q 1881.9 1079.3 1883 1083.5 Q 1881.7 1087.8 1877 1087 L 1877 1089.5 L 1869.5 1097 L 1855.5 1110 L 1852 1110 Q 1853.5 1113.8 1850.5 1113 L 1847 1114 L 1847 1116.5 L 1840.5 1123 L 1835 1125 L 1835 1127.5 L 1825.5 1137 L 1818.5 1143 L 1815 1143 L 1815 1145.5 L 1807.5 1153 L 1792.5 1167 L 1787 1169 L 1785.5 1173 L 1782 1173 L 1782 1176 Q 1777.9 1174.3 1779 1178.5 L 1756.5 1200 L 1749 1203 L 1749 1205.5 L 1738.5 1216 L 1720.5 1232 L 1716.5 1235 L 1714 1235 L 1714 1237.5 L 1703.5 1248 L 1698 1250 L 1698 1252.5 L 1691.5 1259 L 1686 1261 L 1686 1263.5 L 1681.5 1268 Q 1676.7 1266.3 1678 1270.5 L 1654.5 1292 L 1651 1292 L 1651 1294.5 L 1640.5 1305 Q 1623.6 1317.6 1609.5 1333 L 1603 1336 L 1603 1338.5 L 1596.5 1345 L 1589.5 1351 L 1586 1351 L 1586 1353.5 L 1578.5 1361 L 1560.5 1378 L 1557 1378 L 1557 1381 Q 1551.8 1378.9 1553 1383.5 L 1548.5 1389 L 1917.5 1389 L 1924 1393.5 Q 1930.2 1398.8 1928 1412.5 L 1920.5 1421 L 1916.5 1423 L 1497.5 1423 L 1491 1419 L 1487 1411.5 L 1486 1401.5 L 1491 1391 Q 1493.7 1392.1 1493 1389.5 L 1499 1385 L 1500.5 1382 L 1514 1372 L 1515.5 1369 Q 1517.8 1369.8 1517 1367.5 L 1541.5 1345 L 1546 1343.5 L 1545 1342.5 L 1552.5 1335 L 1555.5 1333 L 1571 1319.5 L 1570.5 1318 L 1579 1312.5 L 1578.5 1311 L 1586 1306 Q 1584.9 1303.3 1587.5 1304 L 1596.5 1295 L 1598 1295 Q 1596.9 1292.3 1599.5 1293 Q 1603.2 1286.2 1611 1283.5 L 1618.5 1275 L 1630 1266 Q 1628.9 1263.3 1631.5 1264 L 1636 1262 L 1636 1259.5 L 1640.5 1255 Q 1644.9 1256.5 1644 1253.5 L 1643.5 1252 L 1650.5 1246 L 1653 1246 L 1653 1244.5 L 1661.5 1236 L 1671 1229.5 L 1678.5 1221 L 1683 1219 Q 1681.5 1215.2 1684.5 1216 L 1701 1203 Q 1699.9 1200.3 1702.5 1201 L 1704 1198 L 1719 1186 L 1720.5 1183 Q 1724 1178 1730 1177 L 1737.5 1168 L 1743 1164.5 L 1750.5 1156 L 1755 1154 L 1759.5 1148 L 1763 1147.5 L 1762 1146.5 L 1772.5 1136 L 1795.5 1115 L 1798 1115 L 1798 1113.5 L 1807.5 1104 L 1828.5 1085 L 1832 1085 L 1831.5 1083 L 1830.5 1084 L 1429.5 1084 L 1424.5 1083 L 1414 1076.5 L 1412 1072.5 L 1411 1065.5 L 1412 1062.5 L 1416 1054 L 1421 1051.5 L 1421.5 1050 L 1431.5 1050 L 1432.5 1049 Z " /><path fill="rgb(0,0,0)" stroke="rgb(0,0,0)" stroke-width="1" opacity="0" d="M 0 0 L 2508 0 L 2508 2508 L 0 2508 L 0 0 Z M 1304 916 L 1297 919 Q 1287 924 1284 936 Q 1282 953 1291 959 Q 1295 958 1293 962 L 1297 962 L 1297 965 L 1305 967 Q 1314 969 1319 965 Q 1324 967 1322 962 L 1326 962 L 1330 956 L 1333 954 L 1336 945 L 1335 935 L 1333 931 Q 1334 928 1331 929 L 1331 927 L 1320 917 L 1304 916 Z M 1303 1034 Q 1301 1036 1297 1035 L 1297 1037 Q 1298 1039 1295 1038 Q 1289 1042 1287 1049 L 1287 1377 L 1285 1376 L 1283 1373 L 1236 1329 Q 1233 1330 1234 1328 L 1226 1320 Q 1223 1321 1224 1319 L 1194 1290 Q 1191 1291 1192 1289 L 1189 1287 L 1188 1284 Q 1185 1285 1186 1281 L 1180 1277 L 1160 1258 Q 1157 1259 1158 1256 L 1144 1242 L 1139 1240 L 1138 1237 Q 1134 1238 1136 1234 L 1128 1228 Q 1125 1229 1126 1227 L 1101 1202 Q 1098 1203 1099 1201 L 1095 1197 L 1093 1195 L 1081 1183 Q 1078 1184 1079 1182 Q 1074 1174 1065 1171 L 1055 1171 L 1054 1172 L 1050 1172 Q 1052 1176 1048 1175 L 1029 1195 Q 1031 1199 1027 1198 L 1014 1215 Q 1015 1217 1011 1216 L 1011 1219 L 1008 1219 L 1008 1223 L 1006 1223 L 999 1233 Q 1000 1235 997 1234 L 988 1245 L 984 1247 L 981 1253 Q 982 1256 979 1255 L 975 1261 Q 976 1263 973 1262 L 967 1270 Q 968 1272 965 1271 L 949 1291 Q 950 1294 946 1292 L 946 1296 L 944 1296 L 940 1302 Q 941 1304 938 1303 L 928 1316 Q 929 1318 926 1317 L 910 1336 Q 911 1339 908 1338 L 893 1357 L 890 1354 L 886 1351 L 885 1348 L 880 1344 L 879 1341 L 873 1332 Q 870 1333 871 1331 L 868 1329 L 866 1324 L 862 1321 L 861 1318 L 850 1304 L 843 1298 Q 844 1294 842 1295 L 827 1275 L 819 1268 Q 820 1264 817 1265 L 815 1260 L 809 1255 L 806 1249 L 799 1243 Q 800 1239 798 1240 L 795 1237 Q 796 1234 793 1235 L 793 1233 Q 785 1226 780 1217 L 775 1213 Q 776 1209 773 1210 L 770 1204 L 763 1198 Q 764 1194 761 1195 L 756 1187 L 751 1183 Q 752 1179 749 1180 Q 748 1174 743 1171 Q 744 1168 741 1169 L 739 1165 L 736 1164 Q 737 1160 735 1161 L 727 1150 L 722 1146 L 719 1140 L 688 1101 L 683 1097 Q 684 1093 682 1094 L 679 1089 L 675 1086 L 667 1074 L 661 1068 L 659 1064 L 656 1063 Q 657 1059 654 1060 L 653 1057 Q 647 1052 644 1045 Q 641 1038 633 1037 Q 625 1036 621 1039 Q 613 1043 611 1053 Q 610 1060 613 1064 L 622 1075 Q 623 1079 628 1078 L 628 1082 L 648 1108 L 652 1109 L 652 1113 Q 667 1127 678 1146 Q 679 1150 684 1149 L 684 1153 L 690 1161 Q 691 1165 696 1164 L 696 1168 L 702 1174 Q 701 1178 705 1176 L 705 1179 L 713 1190 L 717 1191 L 717 1195 L 724 1202 Q 728 1201 726 1206 L 729 1206 L 729 1210 L 732 1210 L 733 1215 L 741 1225 Q 742 1229 747 1228 L 747 1232 L 775 1266 L 783 1278 Q 784 1281 788 1280 Q 790 1289 798 1295 Q 802 1294 800 1299 L 803 1299 L 803 1303 L 810 1310 Q 814 1309 812 1314 L 815 1314 Q 814 1320 819 1321 Q 823 1320 821 1325 L 824 1325 L 824 1329 L 852 1364 Q 853 1367 857 1366 Q 856 1370 859 1373 L 863 1374 L 863 1377 L 874 1391 Q 879 1398 889 1400 Q 897 1401 902 1398 Q 917 1384 929 1367 L 932 1365 L 938 1356 L 941 1354 L 950 1342 L 954 1340 L 956 1335 L 959 1333 L 962 1328 L 965 1326 L 968 1321 L 971 1319 L 974 1314 L 977 1312 Q 983 1307 986 1300 L 989 1298 L 1010 1272 L 1013 1270 L 1033 1245 L 1036 1243 L 1051 1224 L 1054 1222 L 1056 1218 Q 1058 1219 1057 1217 L 1061 1214 Q 1064 1213 1063 1217 L 1069 1221 Q 1072 1220 1071 1224 L 1105 1255 L 1111 1259 Q 1113 1258 1112 1262 L 1145 1291 Q 1147 1290 1146 1294 L 1156 1301 Q 1158 1300 1157 1304 L 1161 1306 L 1163 1310 L 1177 1321 Q 1179 1320 1178 1324 L 1180 1324 L 1204 1348 L 1209 1351 Q 1212 1350 1210 1354 L 1213 1354 L 1214 1358 Q 1213 1360 1216 1359 L 1217 1362 L 1228 1369 Q 1230 1368 1229 1372 L 1255 1396 L 1260 1399 Q 1262 1398 1261 1402 L 1264 1402 L 1264 1405 L 1267 1405 L 1267 1408 L 1284 1423 L 1292 1427 L 1306 1427 L 1317 1422 L 1322 1413 L 1322 1046 L 1316 1038 Q 1313 1039 1314 1035 L 1303 1034 Z M 1433 1049 L 1432 1050 L 1422 1050 L 1421 1052 L 1416 1054 L 1412 1063 L 1411 1066 L 1412 1073 L 1414 1077 L 1425 1083 L 1430 1084 L 1831 1084 L 1832 1083 L 1832 1085 L 1829 1085 L 1808 1104 L 1798 1114 L 1798 1115 L 1796 1115 L 1773 1136 L 1762 1147 L 1763 1148 L 1760 1148 L 1755 1154 L 1751 1156 L 1743 1165 L 1738 1168 L 1730 1177 Q 1724 1178 1721 1183 L 1719 1186 L 1704 1198 L 1703 1201 Q 1700 1200 1701 1203 L 1685 1216 Q 1682 1215 1683 1219 L 1679 1221 L 1671 1230 L 1662 1236 L 1653 1245 L 1653 1246 L 1651 1246 L 1644 1252 L 1644 1254 Q 1645 1257 1641 1255 L 1636 1260 L 1636 1262 L 1632 1264 Q 1629 1263 1630 1266 L 1619 1275 L 1611 1284 Q 1603 1286 1600 1293 Q 1597 1292 1598 1295 L 1597 1295 L 1588 1304 Q 1585 1303 1586 1306 L 1579 1311 L 1579 1313 L 1571 1318 L 1571 1320 L 1556 1333 L 1553 1335 L 1545 1343 L 1546 1344 L 1542 1345 L 1517 1368 Q 1518 1370 1516 1369 L 1514 1372 L 1501 1382 L 1499 1385 L 1493 1390 Q 1494 1392 1491 1391 L 1486 1402 L 1487 1412 L 1491 1419 L 1498 1423 L 1917 1423 L 1921 1421 L 1928 1413 Q 1930 1399 1924 1394 L 1918 1389 L 1549 1389 L 1553 1384 Q 1552 1379 1557 1381 L 1557 1378 L 1561 1378 L 1579 1361 L 1586 1354 L 1586 1351 L 1590 1351 L 1597 1345 L 1603 1339 L 1603 1336 L 1610 1333 Q 1624 1318 1641 1305 L 1651 1295 L 1651 1292 L 1655 1292 L 1678 1271 Q 1677 1266 1682 1268 L 1686 1264 L 1686 1261 L 1692 1259 L 1698 1253 L 1698 1250 L 1704 1248 L 1714 1238 L 1714 1235 L 1717 1235 L 1721 1232 L 1739 1216 L 1749 1206 L 1749 1203 L 1757 1200 L 1779 1179 Q 1778 1174 1782 1176 L 1782 1173 L 1786 1173 L 1787 1169 L 1793 1167 L 1808 1153 L 1815 1146 L 1815 1143 L 1819 1143 L 1826 1137 L 1835 1128 L 1835 1125 L 1841 1123 L 1847 1117 L 1847 1114 L 1851 1113 Q 1854 1114 1852 1110 L 1856 1110 L 1870 1097 L 1877 1090 L 1877 1087 Q 1882 1088 1883 1084 Q 1882 1079 1886 1081 L 1886 1078 L 1889 1078 L 1889 1072 L 1890 1071 L 1889 1066 Q 1891 1058 1886 1060 L 1885 1055 L 1873 1049 L 1433 1049 Z " /></svg>