<?xml version="1.0" encoding="UTF-8"?>
<svg version="1.1" xmlns="http://www.w3.org/2000/svg" width="2508" height="2508">
<path d="M0 0 C0 0.66 0 1.32 0 2 C0.86625 2.309375 0.86625 2.309375 1.75 2.625 C4.91237805 4.55756436 6.17228961 6.79418454 8 10 C8.50024599 13.08393902 8.50024599 13.08393902 8.50057125 16.43469143 C8.51038554 17.71724361 8.52019983 18.99979579 8.53031152 20.32121319 C8.52097316 21.73721077 8.51125763 23.15320591 8.50120544 24.56919861 C8.50509908 26.07907035 8.51074002 27.58893843 8.51797634 29.09879786 C8.53274034 33.24483399 8.52254424 37.39049069 8.50823963 41.53651464 C8.49713896 46.00899655 8.50906948 50.48142484 8.51808167 54.9539032 C8.53202265 63.71458241 8.52445144 72.47511758 8.50940608 81.23578995 C8.49255386 91.43655087 8.49575529 101.63727584 8.49950016 111.83804638 C8.5053804 130.03878856 8.49120117 148.23946159 8.46655273 166.44018555 C8.44263503 184.10329786 8.4355469 201.76631776 8.44604492 219.42944336 C8.45745371 238.65942365 8.4593844 257.88936118 8.44494683 277.11934096 C8.44342098 279.16985261 8.44190062 281.22036427 8.44038582 283.27087593 C8.439628 284.27978538 8.43887019 285.28869482 8.43808941 286.32817728 C8.43334601 293.43931578 8.43519845 300.5504352 8.43945122 307.66157341 C8.44437748 316.32798912 8.4383954 324.99431744 8.41855692 333.66071313 C8.4086837 338.08282087 8.40358013 342.50479555 8.41144943 346.9269104 C8.41850619 350.97524711 8.41170178 355.02331529 8.3938458 359.0716166 C8.38980124 360.53588078 8.39080135 362.00016943 8.39736467 363.46442448 C8.46058395 378.88899304 8.46058395 378.88899304 3.37890625 384.92578125 C-3.19477795 389.94440037 -9.76112184 391.18065097 -17.9453125 390.8984375 C-27.42188001 389.40745754 -33.04710385 383.07087818 -39.46826172 376.49267578 C-41.16130295 374.78974947 -41.16130295 374.78974947 -43.91015625 372.71484375 C-44.59980469 372.14894531 -45.28945312 371.58304688 -46 371 C-46 370.34 -46 369.68 -46 369 C-46.99 368.67 -47.98 368.34 -49 368 C-49 367.34 -49 366.68 -49 366 C-49.99 365.67 -50.98 365.34 -52 365 C-52 364.34 -52 363.68 -52 363 C-52.88510254 362.5970874 -52.88510254 362.5970874 -53.78808594 362.18603516 C-56.01025078 360.9945035 -57.56250163 359.74835182 -59.390625 358.0234375 C-60.01404785 357.43868652 -60.6374707 356.85393555 -61.27978516 356.25146484 C-61.92995605 355.63223145 -62.58012695 355.01299805 -63.25 354.375 C-63.91950684 353.74416504 -64.58901367 353.11333008 -65.27880859 352.46337891 C-69.40098963 348.56547976 -73.4458173 344.60176311 -77.4140625 340.546875 C-79.16702521 338.78390739 -79.16702521 338.78390739 -82 336.625 C-82.66 336.08875 -83.32 335.5525 -84 335 C-84 334.34 -84 333.68 -84 333 C-84.86625 332.60941406 -84.86625 332.60941406 -85.75 332.2109375 C-91.06220642 329.35193752 -96.00846308 324.49047904 -100 320 C-100 319.34 -100 318.68 -100 318 C-100.99 317.67 -101.98 317.34 -103 317 C-103 316.34 -103 315.68 -103 315 C-103.804375 314.6596875 -103.804375 314.6596875 -104.625 314.3125 C-110.5376286 311.04499472 -115.06724231 305.96180688 -119.7746582 301.20776367 C-121.74409531 299.22033856 -123.7157535 297.23513372 -125.6875 295.25 C-126.36361328 294.56550781 -127.03972656 293.88101562 -127.73632812 293.17578125 C-128.38408203 292.52480469 -129.03183594 291.87382813 -129.69921875 291.203125 C-130.28533936 290.61176758 -130.87145996 290.02041016 -131.4753418 289.41113281 C-132.96381818 287.90170176 -132.96381818 287.90170176 -135 287 C-135 286.34 -135 285.68 -135 285 C-135.5775 284.73832031 -136.155 284.47664063 -136.75 284.20703125 C-142.55646783 281.09210319 -146.98481217 276.12282585 -151 271 C-151.9075 270.278125 -152.815 269.55625 -153.75 268.8125 C-154.4925 268.214375 -155.235 267.61625 -156 267 C-156 266.34 -156 265.68 -156 265 C-156.58265625 264.731875 -157.1653125 264.46375 -157.765625 264.1875 C-160.02786601 262.98519009 -161.80576318 261.66174087 -163.75 260 C-164.36359375 259.484375 -164.9771875 258.96875 -165.609375 258.4375 C-167 257 -167 257 -167 255 C-167.57234375 254.75636719 -168.1446875 254.51273438 -168.734375 254.26171875 C-171.40433538 252.77482702 -173.13829007 251.01916092 -175.25 248.8125 C-178.0587808 245.93498883 -180.87666256 243.17010999 -183.9375 240.5625 C-188.12514441 236.98029815 -191.95449897 233.07961095 -195.80078125 229.13671875 C-198.00578065 226.8647287 -198.00578065 226.8647287 -201 225 C-201 224.34 -201 223.68 -201 223 C-201.88401489 222.59817505 -201.88401489 222.59817505 -202.78588867 222.18823242 C-205.02249195 220.98792939 -206.58566129 219.7256895 -208.42578125 217.98828125 C-209.05806641 217.39466797 -209.69035156 216.80105469 -210.34179688 216.18945312 C-210.99212891 215.57005859 -211.64246094 214.95066406 -212.3125 214.3125 C-212.95123047 213.71244141 -213.58996094 213.11238281 -214.24804688 212.49414062 C-217.4586292 209.465719 -220.6189787 206.39578897 -223.73046875 203.265625 C-226.08396505 200.89885274 -228.46783707 198.61494183 -231 196.4375 C-231.66 195.86515625 -232.32 195.2928125 -233 194.703125 C-234.34544882 193.55739124 -235.69984857 192.42209474 -237.0625 191.296875 C-237.701875 190.76578125 -238.34125 190.2346875 -239 189.6875 C-239.5775 189.21699219 -240.155 188.74648437 -240.75 188.26171875 C-242 187 -242 187 -242 185 C-242.763125 184.731875 -243.52625 184.46375 -244.3125 184.1875 C-246.88988618 183.04865495 -248.26954864 182.18583329 -250 180 C-250 179.34 -250 178.68 -250 178 C-251.32 177.67 -252.64 177.34 -254 177 C-254 177.66 -254 178.32 -254 179 C-254.66 179 -255.32 179 -256 179 C-256.33 179.99 -256.66 180.98 -257 182 C-257.66 182 -258.32 182 -259 182 C-259.33 183.32 -259.66 184.64 -260 186 C-260.66 186 -261.32 186 -262 186 C-262.24105469 186.56074219 -262.48210937 187.12148437 -262.73046875 187.69921875 C-264.2617823 190.47443007 -266.14596305 192.50031351 -268.3125 194.8125 C-271.07357837 197.8088471 -273.64547772 200.75559 -275.9375 204.125 C-276.618125 205.07375 -277.29875 206.0225 -278 207 C-278.66 207 -279.32 207 -280 207 C-280.21269531 207.52207031 -280.42539063 208.04414062 -280.64453125 208.58203125 C-282.5621563 212.00280908 -285.1007748 214.75482499 -287.6875 217.6875 C-291.88900992 222.50055045 -295.92225877 227.36129931 -299.6953125 232.5234375 C-300.12585938 233.01070312 -300.55640625 233.49796875 -301 234 C-301.66 234 -302.32 234 -303 234 C-303.21140625 234.51949219 -303.4228125 235.03898437 -303.640625 235.57421875 C-305.57968124 239.03443117 -308.14181769 241.83853602 -310.75 244.8125 C-311.26304687 245.40353516 -311.77609375 245.99457031 -312.3046875 246.60351562 C-313.34206608 247.79858617 -314.38048014 248.99275865 -315.41992188 250.18603516 C-317.03727608 252.04279377 -318.65451059 253.89954065 -320.265625 255.76171875 C-320.74290039 256.31174561 -321.22017578 256.86177246 -321.71191406 257.4284668 C-323.19307814 259.18297609 -323.19307814 259.18297609 -325 262 C-325.66 262 -326.32 262 -327 262 C-327.3403125 262.7734375 -327.3403125 262.7734375 -327.6875 263.5625 C-330.12821284 268.09525242 -333.10908045 272.58636658 -337 276 C-337.66 276 -338.32 276 -339 276 C-339.28875 276.598125 -339.5775 277.19625 -339.875 277.8125 C-341 280 -341 280 -343 283 C-343.66 283 -344.32 283 -345 283 C-345.28875 283.598125 -345.5775 284.19625 -345.875 284.8125 C-347 287 -347 287 -349 290 C-349.66 290 -350.32 290 -351 290 C-351.28875 290.598125 -351.5775 291.19625 -351.875 291.8125 C-353 294 -353 294 -355 297 C-355.66 297 -356.32 297 -357 297 C-357.103125 297.598125 -357.20625 298.19625 -357.3125 298.8125 C-358.09824033 301.31258286 -358.96918853 302.37535082 -361 304 C-361.66 304 -362.32 304 -363 304 C-363.2475 304.55171875 -363.495 305.1034375 -363.75 305.671875 C-365.24234474 308.45136707 -367.03672523 310.7814707 -369 313.25 C-369.70125 314.14203125 -370.4025 315.0340625 -371.125 315.953125 C-371.74375 316.62859375 -372.3625 317.3040625 -373 318 C-373.66 318 -374.32 318 -375 318 C-375.3403125 318.7734375 -375.3403125 318.7734375 -375.6875 319.5625 C-377.48217618 322.89547005 -379.49965015 326.14703671 -382 329 C-382.66 329 -383.32 329 -384 329 C-384.21527344 329.52335937 -384.43054688 330.04671875 -384.65234375 330.5859375 C-386.53384217 333.95627379 -389.03349946 336.73320249 -391.5625 339.625 C-392.09609131 340.24093018 -392.62968262 340.85686035 -393.17944336 341.49145508 C-411.35507655 362.41150291 -411.35507655 362.41150291 -418.58984375 363.328125 C-424.72335629 363.56370573 -429.27720623 363.07412089 -434 359 C-438.29596055 354.71316038 -441.64050653 350.0392402 -445 345 C-445.9075 344.0925 -446.815 343.185 -447.75 342.25 C-448.4925 341.5075 -449.235 340.765 -450 340 C-450 339.34 -450 338.68 -450 338 C-450.66 338 -451.32 338 -452 338 C-456 332.58823529 -456 332.58823529 -456 330 C-456.66 330 -457.32 330 -458 330 C-459.6187651 328.05326947 -461.12985969 326.1010215 -462.625 324.0625 C-465.63562124 320.04381219 -468.6649865 316.14263545 -472.0625 312.4375 C-475.9996219 308.11704777 -479.46315451 303.49973955 -482.921875 298.796875 C-484.32004797 296.9151234 -485.76990145 295.07080859 -487.265625 293.265625 C-489 291 -489 291 -489 289 C-489.66 289 -490.32 289 -491 289 C-491.33 287.68 -491.66 286.36 -492 285 C-492.66 285 -493.32 285 -494 285 C-498 280.52941176 -498 280.52941176 -498 278 C-498.66 278 -499.32 278 -500 278 C-500.33 276.68 -500.66 275.36 -501 274 C-501.66 274 -502.32 274 -503 274 C-504.7265625 272.1015625 -504.7265625 272.1015625 -506.625 269.625 C-507.25664063 268.81289062 -507.88828125 268.00078125 -508.5390625 267.1640625 C-510 265 -510 265 -510 263 C-510.66 263 -511.32 263 -512 263 C-512.33 261.68 -512.66 260.36 -513 259 C-513.66 259 -514.32 259 -515 259 C-516.60981172 257.09480998 -518.09503268 255.19744338 -519.5625 253.1875 C-519.97435547 252.64029297 -520.38621094 252.09308594 -520.81054688 251.52929688 C-522.66149019 249.03006899 -524.00987428 246.97037715 -525 244 C-525.66 244 -526.32 244 -527 244 C-528.40112305 242.3828125 -528.40112305 242.3828125 -530.01171875 240.125 C-530.60533203 239.30386719 -531.19894531 238.48273438 -531.81054688 237.63671875 C-532.42994141 236.76660156 -533.04933594 235.89648438 -533.6875 235 C-537.73039721 229.34602345 -541.83281334 223.90111226 -546.47094727 218.71972656 C-548.28806045 216.67601823 -549.97015988 214.55156311 -551.625 212.375 C-553.56330379 209.84959306 -555.51843781 207.38040359 -557.5625 204.9375 C-559.52666029 202.57043503 -561.4389038 200.18830159 -563.3125 197.75 C-563.82425781 197.08484375 -564.33601562 196.4196875 -564.86328125 195.734375 C-566 194 -566 194 -566 192 C-566.66 192 -567.32 192 -568 192 C-569.33264423 190.51143934 -570.59219479 188.95696355 -571.8125 187.375 C-574.15514716 184.3624155 -576.49818331 181.38174874 -579 178.5 C-581 176 -581 176 -581 174 C-581.66 174 -582.32 174 -583 174 C-583.33 172.68 -583.66 171.36 -584 170 C-584.66 170 -585.32 170 -586 170 C-586.33 168.68 -586.66 167.36 -587 166 C-587.66 166 -588.32 166 -589 166 C-590.7265625 164.1015625 -590.7265625 164.1015625 -592.625 161.625 C-593.57246094 160.40683594 -593.57246094 160.40683594 -594.5390625 159.1640625 C-596 157 -596 157 -596 155 C-596.66 155 -597.32 155 -598 155 C-599.62109375 152.91796875 -599.62109375 152.91796875 -601.4375 150.1875 C-603.84611068 146.55213658 -603.84611068 146.55213658 -606.72265625 143.30078125 C-608 142 -608 142 -608 140 C-608.66 140 -609.32 140 -610 140 C-610.33 139.01 -610.66 138.02 -611 137 C-611.825 136.195625 -612.65 135.39125 -613.5 134.5625 C-615.84093148 132.16304524 -616.64126013 131.22865886 -617 128 C-617.66 128 -618.32 128 -619 128 C-620.62109375 126.171875 -620.62109375 126.171875 -622.4375 123.75 C-623.03433594 122.96109375 -623.63117188 122.1721875 -624.24609375 121.359375 C-624.82488281 120.58078125 -625.40367187 119.8021875 -626 119 C-626.56847656 118.28328125 -627.13695312 117.5665625 -627.72265625 116.828125 C-629 115 -629 115 -629 113 C-629.66 113 -630.32 113 -631 113 C-632.4453125 111.41796875 -632.4453125 111.41796875 -634.125 109.1875 C-634.75148438 108.36121094 -635.37796875 107.53492188 -636.0234375 106.68359375 C-637.95820104 104.05675076 -639.85486983 101.40552191 -641.75 98.75 C-645.72463376 93.23830085 -650.05496965 88.0909072 -654.484375 82.9453125 C-661 75.31677019 -661 75.31677019 -661 73 C-661.66 73 -662.32 73 -663 73 C-664.19140625 71.41796875 -664.19140625 71.41796875 -665.5625 69.1875 C-668.63907656 64.40755056 -672.11530096 60.09336189 -675.7421875 55.72265625 C-677.87692427 53.14841485 -679.98470358 50.55787888 -682.0625 47.9375 C-682.91521484 46.86822266 -682.91521484 46.86822266 -683.78515625 45.77734375 C-685 44 -685 44 -685 42 C-686.485 41.505 -686.485 41.505 -688 41 C-689.68359375 39.07421875 -689.68359375 39.07421875 -691.4375 36.6875 C-693.23117665 34.25981684 -694.9386444 32.05942403 -697.109375 29.95703125 C-699.015827 27.9836171 -699.88010616 26.55286441 -700.8125 24 C-701.19341797 23.01 -701.19341797 23.01 -701.58203125 22 C-702.53368949 17.44627086 -699.9674801 13.00522735 -698 9 C-694.68407213 5.17392938 -691.7601883 2.350717 -686.6328125 1.69921875 C-685.80523438 1.69535156 -684.97765625 1.69148438 -684.125 1.6875 C-683.30257812 1.67074219 -682.48015625 1.65398437 -681.6328125 1.63671875 C-677.5942555 2.19396771 -674.42107028 3.42659953 -671.63574219 6.51049805 C-670.29298353 8.30210019 -669.04152003 10.1286684 -667.8125 12 C-664.88064131 16.5286602 -664.88064131 16.5286602 -661.3581543 20.578125 C-660 22 -660 22 -660 24 C-659.34 24 -658.68 24 -658 24 C-657.505 25.98 -657.505 25.98 -657 28 C-656.34 28 -655.68 28 -655 28 C-654.505 29.98 -654.505 29.98 -654 32 C-653.34 32 -652.68 32 -652 32 C-647.89519649 36.45347408 -644.00700723 41.26069112 -640.75 46.375 C-639.02883861 49.15356561 -639.02883861 49.15356561 -636.3125 51.625 C-634.09050785 53.90704599 -633.34368906 54.90679843 -633 58 C-632.34 58 -631.68 58 -631 58 C-630.505 59.98 -630.505 59.98 -630 62 C-629.34 62 -628.68 62 -628 62 C-626.31887236 64.19885544 -624.73922479 66.39990573 -623.1875 68.6875 C-620.08870572 73.2395866 -616.95268362 77.12992874 -613 81 C-611.6110538 82.76484143 -610.25799081 84.55837103 -608.9375 86.375 C-604.72854369 92.09121769 -600.32526574 97.62155308 -595.81030273 103.09912109 C-592 107.78348287 -592 107.78348287 -592 110 C-591.34 110 -590.68 110 -590 110 C-588.39018828 111.90519002 -586.90496732 113.80255662 -585.4375 115.8125 C-585.02564453 116.35970703 -584.61378906 116.90691406 -584.18945312 117.47070312 C-582.33850981 119.96993101 -580.99012572 122.02962285 -580 125 C-579.34 125 -578.68 125 -578 125 C-577.67 126.32 -577.34 127.64 -577 129 C-576.34 129 -575.68 129 -575 129 C-574.67 130.32 -574.34 131.64 -574 133 C-573.34 133 -572.68 133 -572 133 C-570.2734375 134.8984375 -570.2734375 134.8984375 -568.375 137.375 C-567.74335937 138.18710938 -567.11171875 138.99921875 -566.4609375 139.8359375 C-565 142 -565 142 -565 144 C-564.34 144 -563.68 144 -563 144 C-562.67 145.32 -562.34 146.64 -562 148 C-561.34 148 -560.68 148 -560 148 C-558.63636792 149.97946592 -557.30581356 151.9819245 -556 154 C-555.4225 154.5775 -554.845 155.155 -554.25 155.75 C-553 157 -553 157 -553 159 C-552.34 159 -551.68 159 -551 159 C-550.67 160.32 -550.34 161.64 -550 163 C-549.34 163 -548.68 163 -548 163 C-546.2734375 164.8984375 -546.2734375 164.8984375 -544.375 167.375 C-543.74335937 168.18710938 -543.11171875 168.99921875 -542.4609375 169.8359375 C-541 172 -541 172 -541 174 C-540.34 174 -539.68 174 -539 174 C-538.67 175.32 -538.34 176.64 -538 178 C-537.34 178 -536.68 178 -536 178 C-534.31887236 180.19885544 -532.73922479 182.39990573 -531.1875 184.6875 C-528.08608668 189.24343395 -524.9207472 193.09333089 -521 197 C-521 197.66 -521 198.32 -521 199 C-520.34 199 -519.68 199 -519 199 C-518.01 201.475 -518.01 201.475 -517 204 C-516.34 204 -515.68 204 -515 204 C-514.67 205.32 -514.34 206.64 -514 208 C-513.34 208 -512.68 208 -512 208 C-510.2734375 209.8984375 -510.2734375 209.8984375 -508.375 212.375 C-507.74335937 213.18710938 -507.11171875 213.99921875 -506.4609375 214.8359375 C-505 217 -505 217 -505 219 C-504.34 219 -503.68 219 -503 219 C-501.4921875 220.6796875 -501.4921875 220.6796875 -499.875 222.875 C-499.33617187 223.59429688 -498.79734375 224.31359375 -498.2421875 225.0546875 C-497 227 -497 227 -497 229 C-496.34 229 -495.68 229 -495 229 C-494.896875 229.639375 -494.79375 230.27875 -494.6875 230.9375 C-494.460625 231.618125 -494.23375 232.29875 -494 233 C-493.01 233.33 -492.02 233.66 -491 234 C-489.52734375 235.609375 -489.52734375 235.609375 -487.9375 237.75 C-487.33550781 238.55179688 -486.73351562 239.35359375 -486.11328125 240.1796875 C-485.41589844 241.11039063 -484.71851563 242.04109375 -484 243 C-483.12093417 244.12951098 -482.23929383 245.25702167 -481.35546875 246.3828125 C-480.90373291 246.96063477 -480.45199707 247.53845703 -479.98657227 248.13378906 C-479.0896491 249.2807957 -478.19045065 250.42602732 -477.28881836 251.56933594 C-475.36565627 254.0473936 -474.00064173 255.9980748 -473 259 C-472.34 259 -471.68 259 -471 259 C-470.67 260.32 -470.34 261.64 -470 263 C-469.34 263 -468.68 263 -468 263 C-466.58984375 264.58203125 -466.58984375 264.58203125 -464.9375 266.8125 C-461.35039513 271.58017103 -457.56639412 276.15241032 -453.72265625 280.71484375 C-452 283 -452 283 -452 285 C-451.34 285 -450.68 285 -450 285 C-446 290.41176471 -446 290.41176471 -446 293 C-445.01 293.33 -444.02 293.66 -443 294 C-443 294.66 -443 295.32 -443 296 C-442.34 296 -441.68 296 -441 296 C-439.96564444 297.64556566 -438.97236487 299.3170608 -438 301 C-437.278125 301.886875 -436.55625 302.77375 -435.8125 303.6875 C-434 306 -434 306 -434 308 C-433.34 308 -432.68 308 -432 308 C-428 312.47058824 -428 312.47058824 -428 315 C-427.34 315 -426.68 315 -426 315 C-424.64721885 316.98689731 -423.31431695 318.98745218 -422 321 C-421.34 321.33 -420.68 321.66 -420 322 C-419.76023437 321.45214844 -419.52046875 320.90429688 -419.2734375 320.33984375 C-417.69518217 317.4399206 -415.74058323 315.09627992 -413.625 312.5625 C-410.16848989 308.40695814 -410.16848989 308.40695814 -406.8359375 304.15234375 C-406.23007812 303.44207031 -405.62421875 302.73179687 -405 302 C-404.34 302 -403.68 302 -403 302 C-402.6596875 300.948125 -402.6596875 300.948125 -402.3125 299.875 C-399.75596553 294.27497211 -395.29650967 290.29650967 -391 286 C-390.278125 285.071875 -389.55625 284.14375 -388.8125 283.1875 C-388.214375 282.465625 -387.61625 281.74375 -387 281 C-386.34 281 -385.68 281 -385 281 C-384.7525 280.44828125 -384.505 279.8965625 -384.25 279.328125 C-382.75765526 276.54863293 -380.96327477 274.2185293 -379 271.75 C-378.29875 270.85796875 -377.5975 269.9659375 -376.875 269.046875 C-376.25625 268.37140625 -375.6375 267.6959375 -375 267 C-374.34 267 -373.68 267 -373 267 C-372.71125 266.401875 -372.4225 265.80375 -372.125 265.1875 C-371 263 -371 263 -369 260 C-368.34 260 -367.68 260 -367 260 C-366.67 258.68 -366.34 257.36 -366 256 C-365.34 256 -364.68 256 -364 256 C-363.75894531 255.43925781 -363.51789063 254.87851563 -363.26953125 254.30078125 C-361.7382177 251.52556993 -359.85403695 249.49968649 -357.6875 247.1875 C-354.92642163 244.1911529 -352.35452228 241.24441 -350.0625 237.875 C-349.381875 236.92625 -348.70125 235.9775 -348 235 C-347.34 235 -346.68 235 -346 235 C-345.7525 234.443125 -345.505 233.88625 -345.25 233.3125 C-343.77075182 230.57589087 -342.06532561 228.32349131 -340 226 C-339.34 226 -338.68 226 -338 226 C-337.71125 225.401875 -337.4225 224.80375 -337.125 224.1875 C-336 222 -336 222 -334 219 C-333.34 219 -332.68 219 -332 219 C-331.814375 218.319375 -331.62875 217.63875 -331.4375 216.9375 C-329.76023058 213.51003639 -327.68803455 211.579743 -324.9453125 208.98046875 C-322.14175824 206.12624785 -319.83511518 202.9501922 -317.48046875 199.72265625 C-316.99191406 199.15417969 -316.50335937 198.58570313 -316 198 C-315.34 198 -314.68 198 -314 198 C-313.6596875 197.2265625 -313.6596875 197.2265625 -313.3125 196.4375 C-311.51782382 193.10452995 -309.50034985 189.85296329 -307 187 C-306.34 187 -305.68 187 -305 187 C-304.67 185.68 -304.34 184.36 -304 183 C-303.34 183 -302.68 183 -302 183 C-301.67 182.01 -301.34 181.02 -301 180 C-300.34 180 -299.68 180 -299 180 C-298.77441406 179.46632813 -298.54882812 178.93265625 -298.31640625 178.3828125 C-296.56997065 175.2216086 -294.28137135 172.60012341 -291.9375 169.875 C-288.63589453 166.16892732 -288.63589453 166.16892732 -286 162 C-285.34 162 -284.68 162 -284 162 C-283.9071875 161.1646875 -283.9071875 161.1646875 -283.8125 160.3125 C-282.89755479 157.70842516 -281.57949252 156.41355387 -279.58984375 154.55078125 C-277.61521491 152.62466909 -275.81901014 150.57346524 -274 148.5 C-268.07520325 141.80386179 -268.07520325 141.80386179 -265 139 C-264.34 139 -263.68 139 -263 139 C-263 138.34 -263 137.68 -263 137 C-257.69330558 135.23110186 -251.21788822 134.91558346 -245.8671875 136.71875 C-241.89443128 138.92781624 -238.32415545 141.91907544 -235 145 C-235 145.66 -235 146.32 -235 147 C-234.40453369 147.26876953 -233.80906738 147.53753906 -233.19555664 147.81445312 C-230.99343296 149.00354604 -229.60232843 150.179743 -227.87109375 151.96875 C-227.31099609 152.53980469 -226.75089844 153.11085938 -226.17382812 153.69921875 C-225.60083984 154.29347656 -225.02785156 154.88773438 -224.4375 155.5 C-223.29269053 156.67934563 -222.14563543 157.85651652 -220.99609375 159.03125 C-220.49263428 159.55267578 -219.9891748 160.07410156 -219.47045898 160.61132812 C-217.84358092 162.2256108 -217.84358092 162.2256108 -215 164 C-215 164.66 -215 165.32 -215 166 C-214.43152344 166.23976563 -213.86304688 166.47953125 -213.27734375 166.7265625 C-210.53779977 168.25845159 -208.73254305 170.11093429 -206.5625 172.375 C-204.1654693 174.83490364 -201.87233184 177.10213453 -199.1875 179.25 C-196.69575241 181.24339807 -194.98946074 183.51317407 -193 186 C-192.0925 186.721875 -191.185 187.44375 -190.25 188.1875 C-189.5075 188.785625 -188.765 189.38375 -188 190 C-188 190.66 -188 191.32 -188 192 C-187.195625 192.3403125 -187.195625 192.3403125 -186.375 192.6875 C-183.17539839 194.45570089 -180.70962777 196.53670203 -178 199 C-178 199.66 -178 200.32 -178 201 C-177.01 201.33 -176.02 201.66 -175 202 C-175 202.66 -175 203.32 -175 204 C-174.41089844 204.26039063 -173.82179688 204.52078125 -173.21484375 204.7890625 C-170.86424056 206.07422474 -169.39672944 207.43486817 -167.5625 209.375 C-164.85963434 212.16468148 -162.07001881 214.61220759 -159 217 C-157.1875 218.625 -157.1875 218.625 -156 220 C-156 220.66 -156 221.32 -156 222 C-155.40920654 222.26337158 -154.81841309 222.52674316 -154.2097168 222.7980957 C-151.90425159 224.05207927 -150.45535282 225.34327924 -148.64453125 227.23046875 C-148.02586182 227.86573486 -147.40719238 228.50100098 -146.76977539 229.15551758 C-146.12387451 229.82607178 -145.47797363 230.49662598 -144.8125 231.1875 C-139.95505718 236.15940218 -135.15122557 240.79444394 -129.44140625 244.80078125 C-128.96574219 245.19652344 -128.49007812 245.59226562 -128 246 C-128 246.66 -128 247.32 -128 248 C-127.01 248.33 -126.02 248.66 -125 249 C-125 249.66 -125 250.32 -125 251 C-124.01 251.33 -123.02 251.66 -122 252 C-122 252.66 -122 253.32 -122 254 C-121.43796875 254.23332031 -120.8759375 254.46664063 -120.296875 254.70703125 C-117.43265858 256.31937076 -115.52747979 258.3193562 -113.25 260.6875 C-109.00135869 265.02348489 -104.63102177 269.07996497 -100 273 C-98.72850565 274.08255744 -97.45764489 275.16585959 -96.1875 276.25 C-95.37345703 276.93835937 -95.37345703 276.93835937 -94.54296875 277.640625 C-92.94987691 279.04415908 -91.41702762 280.41701419 -90 282 C-90 282.66 -90 283.32 -90 284 C-89.195625 284.3403125 -89.195625 284.3403125 -88.375 284.6875 C-85.17539839 286.45570089 -82.70962777 288.53670203 -80 291 C-80 291.66 -80 292.32 -80 293 C-79.43796875 293.23332031 -78.8759375 293.46664063 -78.296875 293.70703125 C-75.43265858 295.31937076 -73.52747979 297.3193562 -71.25 299.6875 C-68.25314829 302.75007214 -65.26228399 305.72175408 -62 308.5 C-58.84605835 311.19611141 -55.91626603 314.04816975 -53 317 C-47.81404371 322.24163373 -42.36266086 327.05091103 -36.6875 331.75 C-32.48235294 335.27058824 -32.48235294 335.27058824 -31 337 C-31 337.66 -31 338.32 -31 339 C-30.0409375 339.4640625 -30.0409375 339.4640625 -29.0625 339.9375 C-27 341 -27 341 -26 342 C-26.00024353 340.95397771 -26.00024353 340.95397771 -26.00049198 339.88682365 C-26.00935346 298.5598918 -25.98703678 257.23307925 -25.92420971 215.90619117 C-25.91669363 210.9444598 -25.90943815 205.98272808 -25.90234375 201.02099609 C-25.900927 200.03320109 -25.89951025 199.04540608 -25.89805056 198.02767789 C-25.87572966 182.03164494 -25.8745219 166.0356765 -25.88111137 150.03963232 C-25.88740259 133.6272347 -25.87101726 117.21497279 -25.83356392 100.80261612 C-25.81116673 90.67455805 -25.80647521 80.54680909 -25.82440336 70.41874081 C-25.83500189 63.47432847 -25.82358147 56.53017021 -25.79483847 49.58581012 C-25.77890312 45.57863892 -25.77268374 41.57207213 -25.79260826 37.56490517 C-25.81064601 33.89406685 -25.80095206 30.22437088 -25.76946117 26.55363297 C-25.75985025 24.60106843 -25.77968477 22.64842699 -25.80066097 20.69595146 C-25.71108025 13.90943659 -25.0246209 9.6256954 -20.5787679 4.37205982 C-19 3 -19 3 -16 2 C-16 1.34 -16 0.68 -16 0 C-10.99691568 -1.66769477 -5.00308432 -1.66769477 0 0 Z " fill="#030303" transform="translate(1313,1036)"/>
<path d="M0 0 C0.76228636 -0.00235223 1.52457272 -0.00470446 2.30995867 -0.00712797 C4.87905316 -0.01381556 7.44809705 -0.01335982 10.01719952 -0.01294994 C11.87182384 -0.0162487 13.72644744 -0.01997429 15.58107013 -0.02409142 C20.68922773 -0.03411788 25.79737358 -0.03782924 30.90553963 -0.04048073 C36.41009053 -0.04438177 41.9146321 -0.05396012 47.41917706 -0.0626936 C60.71687744 -0.08246175 74.01457858 -0.09252381 87.31228998 -0.10142139 C93.57098966 -0.10580295 99.82968849 -0.11117003 106.08838749 -0.11641026 C126.88676585 -0.13342146 147.6851439 -0.14794189 168.48352814 -0.155159 C169.82850152 -0.15563375 171.1734749 -0.15610964 172.51844827 -0.15658666 C173.18543515 -0.15682303 173.85242202 -0.15705941 174.53962061 -0.15730295 C177.91892162 -0.15850415 181.29822262 -0.1597196 184.67752361 -0.16094494 C185.34815597 -0.16118509 186.01878832 -0.16142524 186.70974287 -0.16167267 C208.45992255 -0.169568 230.21004775 -0.19300551 251.96020364 -0.22550088 C274.95305952 -0.25979022 297.94589288 -0.27950808 320.93877715 -0.28280324 C333.47372956 -0.2849709 346.00860185 -0.29375729 358.54353046 -0.31926441 C369.2155451 -0.34093038 379.88746016 -0.349042 390.55949429 -0.33929763 C396.00640886 -0.33474128 401.45311779 -0.33671668 406.90000439 -0.35605907 C411.88475142 -0.3736079 416.86914154 -0.37276059 421.85389193 -0.35716178 C423.6587345 -0.35477311 425.46360126 -0.35917409 427.26840673 -0.37099043 C429.71989557 -0.38604865 432.17010978 -0.37647985 434.62156677 -0.36076355 C435.32398974 -0.37098576 436.0264127 -0.38120796 436.75012121 -0.39173993 C443.15287074 -0.30201425 447.17268851 2.10567943 451.9370451 6.25922108 C453.4995451 8.13422108 453.4995451 8.13422108 453.4995451 10.13422108 C454.1595451 10.13422108 454.8195451 10.13422108 455.4995451 10.13422108 C457.17362458 15.99349925 457.01958223 22.24407717 455.4995451 28.13422108 C454.8395451 28.13422108 454.1795451 28.13422108 453.4995451 28.13422108 C453.1695451 29.12422108 452.8395451 30.11422108 452.4995451 31.13422108 C451.8395451 31.13422108 451.1795451 31.13422108 450.4995451 31.13422108 C450.1282951 32.06234608 450.1282951 32.06234608 449.7495451 33.00922108 C448.2932587 35.48490794 447.12142004 36.0854711 444.4995451 37.13422108 C444.4995451 37.79422108 444.4995451 38.45422108 444.4995451 39.13422108 C443.1714201 40.47406483 443.1714201 40.47406483 441.2495451 42.07172108 C437.48831721 45.26775551 433.82079471 48.54517453 430.1870451 51.88422108 C429.67174236 52.35593739 429.15643963 52.82765369 428.62552166 53.31366444 C426.62152933 55.15372362 424.63995991 56.98588218 422.76907635 58.96234608 C421.4995451 60.13422108 421.4995451 60.13422108 419.4995451 60.13422108 C419.4995451 60.79422108 419.4995451 61.45422108 419.4995451 62.13422108 C417.8495451 62.79422108 416.1995451 63.45422108 414.4995451 64.13422108 C414.4995451 64.79422108 414.4995451 65.45422108 414.4995451 66.13422108 C412.8901701 67.79047108 412.8901701 67.79047108 410.7495451 69.63422108 C409.70540447 70.54687733 409.70540447 70.54687733 408.6401701 71.47797108 C406.4995451 73.13422108 406.4995451 73.13422108 404.2964201 74.16547108 C402.1432159 75.06156348 402.1432159 75.06156348 401.4995451 78.13422108 C399.9682951 79.67718983 399.9682951 79.67718983 397.9995451 81.32172108 C394.03922802 84.66725969 390.20109179 88.12426444 386.3823576 91.63031483 C384.4995451 93.13422108 384.4995451 93.13422108 382.4995451 93.13422108 C382.1695451 94.12422108 381.8395451 95.11422108 381.4995451 96.13422108 C379.86282635 97.78265858 379.86282635 97.78265858 377.8120451 99.50922108 C376.7292326 100.4296117 376.7292326 100.4296117 375.6245451 101.36859608 C373.85747962 102.8368196 372.08602902 104.29938014 370.3120451 105.75922108 C366.9720414 108.57966864 363.94276812 111.62295528 360.92532635 114.78265858 C359.48522406 116.26809096 357.99535046 117.70489595 356.4995451 119.13422108 C355.8395451 119.13422108 355.1795451 119.13422108 354.4995451 119.13422108 C354.1695451 120.12422108 353.8395451 121.11422108 353.4995451 122.13422108 C352.16621176 122.46755441 350.83287843 122.80088774 349.4995451 123.13422108 C349.1695451 124.12422108 348.8395451 125.11422108 348.4995451 126.13422108 C347.8395451 126.13422108 347.1795451 126.13422108 346.4995451 126.13422108 C346.4995451 126.79422108 346.4995451 127.45422108 346.4995451 128.13422108 C344.70657635 129.68500233 344.70657635 129.68500233 342.3120451 131.44672108 C337.65938595 134.8802755 333.78516993 138.79872287 329.7807951 142.95843983 C328.8629826 143.90332264 327.9451701 144.84820545 326.9995451 145.82172108 C326.53934978 146.30705311 326.07915447 146.79238514 325.60501385 147.2924242 C322.77734036 150.17983727 320.36990768 151.93525006 316.4995451 153.13422108 C316.4995451 153.79422108 316.4995451 154.45422108 316.4995451 155.13422108 C315.0307951 156.57953358 315.0307951 156.57953358 312.9995451 158.25922108 C310.03277148 160.77680009 307.22380261 163.35591084 304.4995451 166.13422108 C299.6630298 171.03711991 294.49060464 175.49732615 289.1870451 179.88422108 C286.58333758 181.98352362 286.58333758 181.98352362 284.7495451 183.94672108 C283.4995451 185.13422108 283.4995451 185.13422108 281.4995451 185.13422108 C281.1695451 186.12422108 280.8395451 187.11422108 280.4995451 188.13422108 C278.8276701 189.78265858 278.8276701 189.78265858 276.7495451 191.50922108 C274.25838163 193.61197733 271.87185981 195.71002208 269.6245451 198.07172108 C267.4995451 200.13422108 267.4995451 200.13422108 265.4995451 200.13422108 C265.4995451 200.79422108 265.4995451 201.45422108 265.4995451 202.13422108 C263.8901701 203.79047108 263.8901701 203.79047108 261.7495451 205.63422108 C261.05345135 206.24265858 260.3573576 206.85109608 259.6401701 207.47797108 C257.4995451 209.13422108 257.4995451 209.13422108 255.2964201 210.16547108 C253.1432159 211.06156348 253.1432159 211.06156348 252.4995451 214.13422108 C248.04240224 218.13422108 248.04240224 218.13422108 245.4995451 218.13422108 C245.1695451 219.12422108 244.8395451 220.11422108 244.4995451 221.13422108 C243.0386076 222.60687733 243.0386076 222.60687733 241.1245451 224.19672108 C236.68415858 227.9570484 232.39693475 231.865274 228.11282635 235.80218983 C221.01713304 242.13422108 221.01713304 242.13422108 218.4995451 242.13422108 C218.4995451 242.79422108 218.4995451 243.45422108 218.4995451 244.13422108 C217.0307951 245.57953358 217.0307951 245.57953358 214.9995451 247.25922108 C212.03277148 249.77680009 209.22380261 252.35591084 206.4995451 255.13422108 C201.4108066 260.28259323 196.1098472 265.00507585 190.2495451 269.25922108 C187.0817898 271.58592506 184.92508407 274.02649927 182.4995451 277.13422108 C178.7762626 280.70236681 175.22996297 283.99075048 170.4995451 286.13422108 C170.4995451 286.79422108 170.4995451 287.45422108 170.4995451 288.13422108 C168.99563885 289.64984608 168.99563885 289.64984608 166.9370451 291.38422108 C166.21130291 291.99910389 165.48556072 292.6139867 164.73782635 293.24750233 C163.99919353 293.87011951 163.26056072 294.4927367 162.4995451 295.13422108 C161.83309978 295.72590076 161.16665447 296.31758045 160.48001385 296.92718983 C159.86770916 297.46988514 159.25540447 298.01258045 158.6245451 298.57172108 C157.79309978 299.31228748 157.79309978 299.31228748 156.9448576 300.06781483 C155.4995451 301.13422108 155.4995451 301.13422108 153.4995451 301.13422108 C153.1695451 302.12422108 152.8395451 303.11422108 152.4995451 304.13422108 C150.86282635 305.78265858 150.86282635 305.78265858 148.8120451 307.50922108 C148.09145916 308.12281483 147.37087322 308.73640858 146.62845135 309.36859608 C145.35081115 310.42821694 144.06844356 311.48223048 142.77688885 312.52484608 C140.46641554 314.39213397 138.46988855 316.17178603 136.6245451 318.50922108 C133.67000275 322.15894986 130.25631442 325.31257831 126.4995451 328.13422108 C125.8395451 328.13422108 125.1795451 328.13422108 124.4995451 328.13422108 C124.4995451 328.79422108 124.4995451 329.45422108 124.4995451 330.13422108 C123.1795451 330.46422108 121.8595451 330.79422108 120.4995451 331.13422108 C120.4995451 331.79422108 120.4995451 332.45422108 120.4995451 333.13422108 C118.9682951 334.64203358 118.9682951 334.64203358 116.9995451 336.25922108 C116.3498576 336.7980492 115.7001701 337.33687733 115.0307951 337.89203358 C114.5254826 338.30195545 114.0201701 338.71187733 113.4995451 339.13422108 C114.28440749 339.13443844 115.06926988 339.13465581 115.87791598 339.13487977 C162.37364254 339.14838947 208.86928485 339.18784043 255.36495767 339.2610767 C260.94513887 339.26984367 266.52532039 339.27839344 272.10550213 339.28680897 C273.21643696 339.28848803 274.32737179 339.29016709 275.47197132 339.29189704 C293.47073228 339.31858207 311.46946139 339.32766319 329.4682401 339.3302625 C347.93045629 339.33331969 366.39258026 339.35523923 384.85475481 339.39474565 C396.25107415 339.41853532 407.64720952 339.42753279 419.0435503 339.41773418 C426.85367066 339.41242703 434.66362584 339.42540691 442.47369917 339.45288398 C446.9828053 339.46820404 451.49154186 339.47534913 456.00065899 339.46081829 C460.12768213 339.44769644 464.25398804 339.45750179 468.38093011 339.4856588 C469.87496016 339.49178449 471.36905352 339.48944605 472.86305113 339.47785034 C485.42769041 339.38794916 485.42769041 339.38794916 489.31353092 342.54844093 C490.0349156 343.40174838 490.75630028 344.25505583 491.4995451 345.13422108 C492.10024822 345.79808826 492.70095135 346.46195545 493.3198576 347.14593983 C496.18381334 351.97293809 495.88096395 357.60854565 494.5620451 362.88422108 C491.7840657 367.26164316 489.24784082 369.92771426 484.4995451 372.13422108 C478.89572375 373.02808078 473.34695875 372.94529583 467.68448162 372.89612293 C465.95497536 372.90303977 464.22547791 372.91257139 462.49599886 372.9244864 C457.75201838 372.94951652 453.00876278 372.9371621 448.26477981 372.91856909 C443.14537873 372.9049925 438.02610221 372.92594829 432.90672588 372.94244862 C422.88128031 372.96913259 412.85610421 372.96336383 402.83064806 372.94597277 C394.68300103 372.93242409 386.53542953 372.93058405 378.38777447 372.93711567 C377.22829181 372.93803507 376.06880915 372.93895447 374.87419066 372.93990172 C372.51874576 372.94182007 370.16330088 372.94376535 367.80785602 372.94573727 C345.71926704 372.96284777 323.63082745 372.94317262 301.54226297 372.91093507 C282.58800746 372.88412841 263.63397242 372.88878452 244.67972088 372.91644764 C222.67034318 372.94855456 200.66109643 372.9611998 178.65169859 372.94277406 C176.30490432 372.94086276 173.95811003 372.93897653 171.61131573 372.93711567 C170.45663912 372.93619002 169.30196252 372.93526436 168.11229572 372.93431066 C159.97415022 372.92912946 151.83608777 372.93787585 143.69795513 372.95199299 C133.78063356 372.96881825 123.86359693 372.96427306 113.94630802 372.93230852 C108.88598597 372.91653625 103.82613906 372.91037062 98.7658205 372.93020344 C94.13316293 372.94808557 89.50142078 372.93825362 84.86884624 372.90633813 C83.19332401 372.89963719 81.51772441 372.90304307 79.84225196 372.91759285 C64.71498463 373.03887856 64.71498463 373.03887856 58.85370302 367.68849015 C54.74854728 362.97669361 54.15079413 358.83543154 54.00345135 352.79437733 C55.21999488 346.27102185 59.50850807 341.65196727 64.1245451 337.19672108 C64.90970501 336.42412952 64.90970501 336.42412952 65.71072674 335.63593006 C69.67507371 331.79158753 73.83925214 328.28337667 78.24563885 324.95062733 C80.86223082 322.84193536 83.13768881 320.52648753 85.4995451 318.13422108 C110.49940715 294.13422108 110.49940715 294.13422108 113.4995451 294.13422108 C113.4995451 293.47422108 113.4995451 292.81422108 113.4995451 292.13422108 C114.8276701 290.79437733 114.8276701 290.79437733 116.7495451 289.19672108 C120.51077299 286.00068665 124.17829549 282.72326762 127.8120451 279.38422108 C128.32734783 278.91250477 128.84265057 278.44078846 129.37356853 277.95477772 C131.37756087 276.11471853 133.35913028 274.28255998 135.23001385 272.30609608 C136.4995451 271.13422108 136.4995451 271.13422108 138.4995451 271.13422108 C138.4995451 270.47422108 138.4995451 269.81422108 138.4995451 269.13422108 C143.97573557 264.13422108 143.97573557 264.13422108 146.4995451 264.13422108 C146.4995451 263.47422108 146.4995451 262.81422108 146.4995451 262.13422108 C148.14305967 260.77245186 149.81477166 259.44460042 151.4995451 258.13422108 C152.2626701 257.37109608 153.0257951 256.60797108 153.8120451 255.82172108 C155.9447237 253.68904247 158.09337209 251.72393078 160.3745451 249.75922108 C163.0881781 247.41353831 165.67277559 245.00481228 168.1870451 242.44672108 C170.81190369 239.78590551 173.44855162 237.31350213 176.4995451 235.13422108 C177.1595451 235.13422108 177.8195451 235.13422108 178.4995451 235.13422108 C178.8295451 234.14422108 179.1595451 233.15422108 179.4995451 232.13422108 C180.92532635 230.69672108 180.92532635 230.69672108 182.8120451 229.13422108 C185.44741365 226.90869284 188.03697753 224.65563945 190.55813885 222.30218983 C191.08560711 221.81041248 191.61307537 221.31863514 192.15652752 220.81195545 C193.20262888 219.83334968 194.24586212 218.85166714 195.28592205 217.86664295 C197.36662391 215.92982854 199.23724798 214.26403139 201.7964201 212.99750233 C203.86901332 212.19784064 203.86901332 212.19784064 204.4995451 209.13422108 C208.95668795 205.13422108 208.95668795 205.13422108 211.4995451 205.13422108 C211.4995451 204.47422108 211.4995451 203.81422108 211.4995451 203.13422108 C213.1792326 201.40765858 213.1792326 201.40765858 215.3745451 199.50922108 C216.09384197 198.87758045 216.81313885 198.24593983 217.5542326 197.59515858 C219.4995451 196.13422108 219.4995451 196.13422108 221.4995451 196.13422108 C221.4995451 195.47422108 221.4995451 194.81422108 221.4995451 194.13422108 C223.00345135 192.61859608 223.00345135 192.61859608 225.0620451 190.88422108 C225.78778728 190.26933826 226.51352947 189.65445545 227.26126385 189.02093983 C227.99989666 188.39832264 228.73852947 187.77570545 229.4995451 187.13422108 C230.16599041 186.54254139 230.83243572 185.9508617 231.51907635 185.34125233 C232.13138103 184.79855701 232.74368572 184.2558617 233.3745451 183.69672108 C234.20599041 182.95615467 234.20599041 182.95615467 235.0542326 182.20062733 C236.4995451 181.13422108 236.4995451 181.13422108 238.4995451 181.13422108 C238.4995451 180.47422108 238.4995451 179.81422108 238.4995451 179.13422108 C240.14407635 177.51312733 240.14407635 177.51312733 242.3120451 175.69672108 C245.32417775 173.16082776 245.32417775 173.16082776 248.13626385 170.41156483 C249.4995451 169.13422108 249.4995451 169.13422108 251.4995451 169.13422108 C251.4995451 168.47422108 251.4995451 167.81422108 251.4995451 167.13422108 C253.17489969 165.61437225 254.91660132 164.16715655 256.6870451 162.75922108 C257.64997478 161.9883617 258.61290447 161.21750233 259.60501385 160.42328358 C261.41354388 158.99305605 263.22775144 157.5699448 265.05032635 156.15765858 C267.71253803 153.95825563 270.07306667 151.59216681 272.4995451 149.13422108 C275.27341288 146.46948671 278.0739394 143.83330529 280.8745451 141.19672108 C281.60415447 140.50642811 282.33376385 139.81613514 283.0854826 139.1049242 C295.79371719 127.13422108 295.79371719 127.13422108 298.4995451 127.13422108 C298.4995451 126.47422108 298.4995451 125.81422108 298.4995451 125.13422108 C300.1089201 123.47797108 300.1089201 123.47797108 302.2495451 121.63422108 C303.29368572 120.72156483 303.29368572 120.72156483 304.3589201 119.79047108 C306.34415301 118.25445145 308.21826554 117.16182448 310.4995451 116.13422108 C310.4995451 115.47422108 310.4995451 114.81422108 310.4995451 114.13422108 C312.14407635 112.51312733 312.14407635 112.51312733 314.3120451 110.69672108 C317.32417775 108.16082776 317.32417775 108.16082776 320.13626385 105.41156483 C321.4995451 104.13422108 321.4995451 104.13422108 323.4995451 104.13422108 C323.4995451 103.47422108 323.4995451 102.81422108 323.4995451 102.13422108 C327.97013333 98.13422108 327.97013333 98.13422108 330.4995451 98.13422108 C330.4995451 97.47422108 330.4995451 96.81422108 330.4995451 96.13422108 C331.97268963 94.66693592 331.97268963 94.66693592 334.0073576 92.97015858 C338.25596198 89.35706915 342.32348698 85.59096706 346.3745451 81.75922108 C356.02465318 72.6862295 356.02465318 72.6862295 360.3745451 68.69672108 C361.51536541 67.64677967 361.51536541 67.64677967 362.6792326 66.57562733 C364.4995451 65.13422108 364.4995451 65.13422108 366.4995451 65.13422108 C366.4995451 64.47422108 366.4995451 63.81422108 366.4995451 63.13422108 C367.96609783 61.67352772 367.96609783 61.67352772 369.99563885 59.98187733 C375.02411481 55.70606781 379.79817487 51.19166749 384.58743572 46.6517992 C387.80851986 43.61227277 391.04902856 40.59909776 394.37063885 37.66937733 C394.92549969 37.17961414 395.48036053 36.68985096 396.05203533 36.18524647 C397.4995451 35.13422108 397.4995451 35.13422108 399.4995451 35.13422108 C399.4995451 34.47422108 399.4995451 33.81422108 399.4995451 33.13422108 C398.21230227 33.13706898 398.21230227 33.13706898 396.89905453 33.13997442 C346.05269271 33.25183192 295.20634393 33.33763723 244.35988373 33.38954772 C238.25653497 33.39580136 232.15318645 33.40227296 226.04983807 33.40887928 C224.22721547 33.41084661 224.22721547 33.41084661 222.36777222 33.41285368 C202.68579822 33.43461825 183.00389713 33.4740456 163.32196641 33.51998506 C143.13087076 33.56672037 122.93981333 33.59451029 102.74866581 33.60466355 C90.28669816 33.61152876 77.82493662 33.63322243 65.3630324 33.67380341 C56.82081566 33.70020562 48.27870568 33.70822776 39.73645109 33.70172796 C34.8058198 33.69852117 29.87554899 33.70348358 24.94498158 33.73024845 C20.43057292 33.7545755 15.91676726 33.75581223 11.40233088 33.73871555 C9.76961655 33.73660247 8.13686463 33.7429499 6.5042243 33.75863699 C-3.83167739 33.85217028 -10.24360966 32.98669361 -17.9379549 25.88422108 C-20.13422894 22.01877878 -20.69790485 18.56165638 -20.5004549 14.13422108 C-19.04933384 9.47535871 -17.32227045 6.21633039 -13.5004549 3.13422108 C-12.8404549 3.13422108 -12.1804549 3.13422108 -11.5004549 3.13422108 C-11.5004549 2.47422108 -11.5004549 1.81422108 -11.5004549 1.13422108 C-7.70518754 -0.08428049 -3.94157799 -0.00824279 0 0 Z " fill="#040404" transform="translate(1432.500454902649,1049.8657789230347)"/>
<path d="M0 0 C4.13009323 2.41226684 7.28751165 4.73176259 9.8984375 8.796875 C9.8984375 9.456875 9.8984375 10.116875 9.8984375 10.796875 C10.5584375 10.796875 11.2184375 10.796875 11.8984375 10.796875 C15.17247166 18.29986994 16.30015261 24.52474421 13.3984375 32.359375 C12.9034375 33.49375 12.4084375 34.628125 11.8984375 35.796875 C11.2384375 35.796875 10.5784375 35.796875 9.8984375 35.796875 C9.6509375 36.374375 9.4034375 36.951875 9.1484375 37.546875 C7.70450051 40.14596158 6.16321763 41.87524338 3.8984375 43.796875 C2.9084375 43.796875 1.9184375 43.796875 0.8984375 43.796875 C0.8984375 44.456875 0.8984375 45.116875 0.8984375 45.796875 C-8.26603467 49.21827794 -13.93709033 49.21827794 -23.1015625 45.796875 C-23.1015625 45.136875 -23.1015625 44.476875 -23.1015625 43.796875 C-24.4215625 43.466875 -25.7415625 43.136875 -27.1015625 42.796875 C-27.1015625 42.136875 -27.1015625 41.476875 -27.1015625 40.796875 C-27.7615625 40.796875 -28.4215625 40.796875 -29.1015625 40.796875 C-30.35546875 39.37109375 -30.35546875 39.37109375 -31.6640625 37.484375 C-32.09847656 36.86949219 -32.53289062 36.25460937 -32.98046875 35.62109375 C-36.39891432 30.05867536 -35.60208678 23.06733198 -35.1015625 16.796875 C-32.90668908 9.09096072 -27.0495116 3.89943516 -20.42578125 -0.25390625 C-14.37522235 -2.72497484 -6.0273653 -2.33807118 0 0 Z " fill="#070707" transform="translate(1320.1015625,918.203125)"/>
</svg>
